<svg fill="none" height="32" viewBox="0 0 32 32" width="32" xmlns="http://www.w3.org/2000/svg"><path clip-rule="evenodd" d="m16 0c-8.83733 0-16 7.164-16 16s7.16267 16 16 16c8.836 0 16-7.164 16-16s-7.164-16-16-16zm.1867 25.3573c-5.1574 0-9.33337-4.1866-9.33337-9.3573s4.17597-9.35733 9.33337-9.35733c2.52 0 4.6266.92933 6.2426 2.43866l-2.632 2.63737v-.0054c-.98-.936-2.2226-1.416-3.6106-1.416-3.08 0-5.5827 2.608-5.5827 5.6974 0 3.0866 2.5027 5.7026 5.5827 5.7026 2.7946 0 4.696-1.6026 5.088-3.8026h-5.088v-3.6494h8.78c.1173.6267.18 1.28.18 1.9654 0 5.3466-3.5694 9.1466-8.96 9.1466z" fill="#fff" fill-rule="evenodd"/></svg>